#!OML:ASF F:\VICON\USERDATA\INSTALL\rory3\rory3.ASF
:FULLY-SPECIFIED
:DEGREES
157
root -0.752573 18.2559 1.27653 3.2345 34.2262 1.91817
lowerback 9.40654 -0.0751138 -0.448358
upperback 0.406983 -0.0886776 1.00266
thorax -4.85206 -0.0192479 1.30781
lowerneck -22.6676 -6.437 -12.7007
upperneck 26.6773 -7.18882 8.85813
head 13.645 -3.22409 4.32804
rclavicle 4.9398e-014 -1.39149e-014
rhumerus -34.0727 -12.1832 -78.9039
rradius 28.6074
rwrist 7.20153
rhand -15.4438 8.2065
rfingers 7.12502
rthumb 10.7367 -21.4991
lclavicle 4.9398e-014 -1.39149e-014
lhumerus -35.3433 4.3516 84.0815
lradius 39.9515
lwrist -3.11214
lhand -18.2668 24.1996
lfingers 7.12502
lthumb 8.01285 54.0277
rfemur -4.69302 -10.5296 25.9266
rtibia 17.2879
rfoot -10.655 -23.0085
rtoes 12.4979
lfemur -10.5211 16.4218 -19.4324
ltibia 25.6563
lfoot -11.8704 20.8102
ltoes 16.7024
158
root -0.748102 18.2554 1.27382 3.10468 35.1595 1.79833
lowerback 9.4524 -0.0699118 -0.341867
upperback 0.416541 -0.0675304 1.04776
thorax -4.86843 -0.0104326 1.29212
lowerneck -22.6154 -6.41941 -12.6663
upperneck 26.7676 -7.17122 8.81545
head 13.6662 -3.21919 4.31209
rclavicle -6.33129e-014 6.75868e-015
rhumerus -34.0545 -12.1419 -78.8628
rradius 28.6776
rwrist 7.05714
rhand -15.6417 7.86709
rfingers 7.12502
rthumb 10.5458 -21.8483
lclavicle -6.33129e-014 6.75868e-015
lhumerus -35.3806 4.3191 84.0089
lradius 39.9553
lwrist -3.23425
lhand -17.834 23.5925
lfingers 7.12502
lthumb 8.43054 53.4042
rfemur -4.64873 -10.8469 26.0764
rtibia 17.3256
rfoot -10.6989 -23.4082
rtoes 13.3523
lfemur -10.4242 16.457 -19.268
ltibia 25.7115
lfoot -12.5958 20.8167
ltoes 20.1193
159
root -0.738449 18.2554 1.27172 3.03727 36.0594 1.72487
lowerback 9.36938 -0.0391493 -0.22082
upperback 0.439862 -0.013029 1.06141
thorax -4.79889 0.0137104 1.23029
lowerneck -22.5748 -6.42984 -12.7317
upperneck 26.8331 -7.19459 8.89991
head 13.6959 -3.22497 4.3564
rclavicle -5.89894e-014 -2.38542e-015
rhumerus -34.0036 -12.2033 -78.7684
rradius 28.6273
rwrist 6.89579
rhand -15.7184 7.76782
rfingers 7.12502
rthumb 10.4718 -21.9514
lclavicle -5.89894e-014 -2.38542e-015
lhumerus -35.4017 4.165 84
lradius 39.9897
lwrist -3.20866
lhand -17.4772 23.0285
lfingers 7.12502
lthumb 8.77488 52.8261
rfemur -4.64609 -11.0931 26.163
rtibia 17.4084
rfoot -10.8842 -23.8018
rtoes 14.5437
lfemur -10.3846 16.6074 -19.2111
ltibia 25.7101
lfoot -12.6235 21.0749
ltoes 20.4472
160
root -0.72856 18.2534 1.26949 3.04817 36.8986 1.77431
lowerback 9.30336 0.00624052 -0.269594
upperback 0.419936 0.0424244 1.06835
thorax -4.784 0.0422457 1.25746
lowerneck -22.4448 -6.40421 -12.7501
upperneck 26.836 -7.16947 8.91655
head 13.6685 -3.21555 4.37295
rclavicle 1.86361e-014 5.56597e-015
rhumerus -34.1197 -12.3863 -78.5686
rradius 28.7369
rwrist 7.20296
rhand -15.6701 8.01263
rfingers 7.12502
rthumb 10.5184 -21.7042
lclavicle 1.86361e-014 5.56597e-015
lhumerus -35.5074 3.99581 84.0506
lradius 40.0671
lwrist -3.02633
lhand -17.5415 22.9953
lfingers 7.12502
lthumb 8.71282 52.7955
rfemur -4.63273 -11.1632 26.1476
rtibia 17.4682
rfoot -11.2363 -24.3701
rtoes 16.1444
lfemur -10.3731 16.8088 -19.3259
ltibia 25.6539
lfoot -11.8671 21.5736
ltoes 18.0265
161
root -0.717915 18.2496 1.26552 3.11985 37.7732 1.86482
lowerback 9.21429 0.0249269 -0.377808
upperback 0.401703 0.0561858 1.07733
thorax -4.75355 0.0514223 1.32573
lowerneck -22.4116 -6.39147 -12.7408
upperneck 26.9292 -7.16013 8.91436
head 13.6992 -3.21099 4.37632
rclavicle -1.84373e-014 -1.98785e-015
rhumerus -34.201 -12.296 -78.445
rradius 28.9468
rwrist 7.69695
rhand -15.5365 8.23213
rfingers 7.12502
rthumb 10.6473 -21.4781
lclavicle -1.84373e-014 -1.98785e-015
lhumerus -35.4981 4.00661 84.0367
lradius 40.0632
lwrist -2.999
lhand -17.4154 22.8865
lfingers 7.12502
lthumb 8.83447 52.6816
rfemur -4.63959 -11.275 26.1007
rtibia 17.4729
rfoot -11.3882 -25.0092
rtoes 17.1766
lfemur -10.4098 17.039 -19.4917
ltibia 25.5757
lfoot -10.6197 21.8778
ltoes 14.6415
